<?xml version="1.0" encoding="UTF-8"?>
<svg id="Layer_1" data-name="Layer 1" xmlns="http://www.w3.org/2000/svg" viewBox="0 0 800 900" fill="currentColor">
  <g fill="#ffffff">
    <path d="m706.39,368.01l-146.36-13.18c-10.32-42.32-37.02-78.23-73.04-100.57l47.01-56.79c1.74-2.1,2.48-4.82,2.05-7.47l-6.74-41.38,38.12,12.31c3.22,1.04,6.75.33,9.28-1.87,2.52-2.2,3.66-5.55,3-8.82l-6.61-32.76,48.21-30.82c4.25-2.72,5.4-8.43,2.56-12.76-2.84-4.35-8.61-5.68-12.89-2.97l-53.84,34.08c-3.24,2.05-4.86,5.85-4.1,9.62l4.74,23.37-37.64-12.37c-3.26-1.07-6.83-.43-9.44,1.69-2.61,2.12-3.88,5.43-3.34,8.72l8.66,52.83-46.65,55.95c-20.92-9.67-44.2-15.1-68.76-15.1-19.56,0-38.31,3.46-55.71,9.74L196.18,34.2c-3.58-4.93-10.87-6.53-16.3-3.56-5.45,2.98-6.94,9.42-3.33,14.37l148.31,203.24c-41.12,21.44-72.03,59.77-83.49,105.79l-125.28,27.93c-22.13,1.99-39.8,24.29-39.8,49.84v.8c-13.03,5.49-22.48,20.22-22.48,36.71v266.83c0,16.49,9.44,31.22,22.48,36.71v.8c0,25.54,17.67,47.84,39.8,49.84l200.58,44.71c6.05,2.08,12.66,2.99,19.58,2.54,5.41.35,10.64-.14,15.56-1.37l354.58-31.93c22.13-1.99,39.8-24.29,39.8-49.84v-369.75c0-25.54-17.67-47.84-39.8-49.84Zm-342.47,463.86c-14.83,1.15-26.96-10.3-26.96-25.59s12.13-28.41,26.96-29.28c14.68-.87,26.47,10.61,26.47,25.63s-11.79,28.11-26.47,29.25Zm60.23-4.68c-14.23,1.11-25.86-10.13-25.86-25.11s11.64-27.81,25.86-28.65c14.09-.83,25.41,10.43,25.41,25.14s-11.32,27.52-25.41,28.61Zm284.87-149.66c0,25.91-18.19,47.77-40.97,48.84l-282.07,13.19c-28.42,1.33-51.87-21.61-51.87-51.25v-258.12c0-29.65,23.45-51.9,51.87-49.74l282.07,21.42c22.79,1.73,40.97,24.12,40.97,50.03v225.64Z"/>
    <g>
      <g>
        <path d="m616.2,423.87c-36.18-5.96-68.9,22.26-72.19,63.25-3.3,41.09,24.34,77.81,60.83,81.84,35.53,3.92,66.1-24.8,69.09-63.98,2.99-39.09-22.49-75.31-57.73-81.11Zm-19.57,86.16c-.11,1.36-.23,2.38-.36,3.04-.13.67-.43,1.41-.9,2.21-.47.81-1.22,1.32-2.26,1.55-1.04.22-2.42.23-4.13,0-2.41-.31-4.08-.93-5.01-1.86-.93-.93-1.41-2.18-1.45-3.74-2.24,2.89-5.6,4.05-10.08,3.47-4.88-.63-9.15-3.57-12.81-8.82-3.67-5.27-5.25-11.09-4.74-17.45.49-6.18,2.97-11.33,7.41-15.45,4.43-4.1,9.05-5.8,13.86-5.1,1.83.27,3.47.87,4.92,1.8,1.45.93,2.44,1.75,2.98,2.46.54.71.97,1.39,1.3,2.03.29-1.64.97-2.8,2.02-3.48,1.05-.68,2.84-.84,5.35-.48,1.65.24,2.97.61,3.95,1.11.98.5,1.64,1.22,1.96,2.17.33.94.51,1.76.53,2.45.03.69-.01,1.71-.12,3.07l-2.44,31.01Zm65.85,11.77c-.13.65-.41,1.39-.86,2.21-.45.82-1.17,1.34-2.15,1.56-.99.22-2.3.23-3.93.02-1.58-.2-2.84-.55-3.78-1.06-.94-.5-1.57-1.21-1.89-2.13-.32-.92-.49-1.72-.51-2.39-.03-.68.01-1.68.12-3.02l1.17-15.21c.39-5.04-1-7.78-4.17-8.23-1.79-.25-3.06.25-3.81,1.49-.75,1.25-1.21,3.09-1.4,5.53l-1.18,15.27c-.11,1.4-.23,2.41-.35,3.04-.13.63-.43,1.36-.91,2.17-.48.82-1.22,1.34-2.23,1.56-1.01.22-2.34.23-3.99.02-1.61-.21-2.89-.56-3.84-1.07-.96-.51-1.6-1.22-1.92-2.15-.32-.93-.5-1.73-.52-2.42-.03-.68.01-1.7.12-3.04l1.19-15.34c.4-5.08-1.02-7.85-4.24-8.3-3.13-.44-4.9,1.89-5.3,6.99l-1.22,15.57c-.11,1.35-.22,2.36-.35,3.02-.13.67-.44,1.4-.93,2.19-.49.8-1.24,1.31-2.27,1.53-1.03.22-2.38.23-4.06.01-1.63-.21-2.94-.56-3.91-1.04-.98-.48-1.63-1.19-1.96-2.13-.33-.94-.51-1.73-.53-2.39-.03-.66.01-1.7.12-3.11l2.44-31.11c.11-1.35.23-2.36.36-3.03.13-.66.44-1.39.93-2.19.49-.79,1.25-1.29,2.28-1.5,1.03-.21,2.38-.19,4.06.06,2.57.38,4.26,1.16,5.07,2.34.81,1.18,1.13,2.77.98,4.76.12-.16.27-.36.44-.6.18-.24.58-.69,1.21-1.33.63-.65,1.28-1.2,1.95-1.67.67-.46,1.53-.84,2.58-1.13,1.05-.29,2.09-.36,3.13-.21,5.29.77,9.01,3.88,11.2,9.31.63-.79,1.39-1.61,2.26-2.45.87-.84,2.22-1.7,4.05-2.58,1.83-.88,3.66-1.18,5.5-.91,4.08.6,7.34,2.87,9.81,6.81,2.46,3.94,3.38,9.99,2.75,18.18l-1.16,15.14c-.1,1.33-.22,2.32-.34,2.97Z"/>
        <path d="m576.95,483.7c-2.1-.3-3.89.3-5.35,1.78-1.46,1.49-2.27,3.21-2.43,5.18-.16,1.97.41,3.84,1.69,5.61,1.28,1.77,2.95,2.79,5,3.07,1.94.26,3.63-.32,5.08-1.75,1.44-1.43,2.24-3.12,2.4-5.08.15-1.9-.34-3.77-1.47-5.61-1.13-1.84-2.77-2.91-4.93-3.22Z"/>
      </g>
      <path d="m565.02,589.52c-2.64-5.97-5.46-10.74-8.46-14.3-3.01-3.57-6.44-6.88-10.29-9.92-3.86-3.04-6.5-5-7.88-5.86-1.39-.85-2.55-1.48-3.46-1.89l-.2-2.52,2.52-1.64c1.67-1.09,3.68-2.87,6.01-5.33,2.32-2.46,4.61-5.4,6.85-8.8.36-.54.68-1.16,1.01-1.76-8.95-15.15-13.1-32.95-11.65-50.99.49-6.1,1.69-11.93,3.38-17.49-3.88-5.71-8.49-11.23-14.01-16.5-17.11-16.32-39.63-24.11-67.8-23.21-12.09.39-23.01,2.49-32.74,6.31-9.81,3.86-17.37,8.03-22.65,12.51-5.3,4.5-9.9,9.68-13.79,15.55-3.9,5.88-6.25,9.99-7.02,12.32-.79,2.32-1.37,4.13-1.75,5.42-3.43,8.83-4.93,15.78-4.5,20.86.81,9.64,7.63,17.74,20.38,24.29,7.61,4.05,14.39,5.86,20.36,5.46,10.2-.68,17.47-7.41,21.85-20.17l1.74-4.59c.92-3.04,3.72-6.19,8.38-9.44,4.64-3.23,10.66-5.05,18.04-5.45,8.94-.49,15.85,1.47,20.78,5.85,4.9,4.38,7.55,9.1,7.97,14.22.77,9.48-7.43,14.79-24.76,15.96-4.37.29-7.64.58-9.82.85-2.19.27-4.8,1.06-7.84,2.38-3.05,1.33-5.3,3.16-6.75,5.5-1.45,2.34-2.59,5.66-3.41,9.95-.83,4.3-.97,9.66-.43,16.09.66,7.92,1.88,14.16,3.67,18.74,1.79,4.57,4.44,7.63,7.97,9.18,3.51,1.55,6.67,2.44,9.48,2.68,2.8.25,6.84.13,12.11-.35,10.02-.9,17.97.89,23.9,5.35,5.9,4.45,9.09,9.8,9.6,16.08.55,6.75-1.76,13.01-6.94,18.79-5.2,5.81-13.79,9.35-25.85,10.66-5.27.57-10.16.3-14.66-.82-4.53-1.12-8.04-2.54-10.52-4.27-2.49-1.72-4.72-3.79-6.69-6.2-1.97-2.41-3.17-4.16-3.62-5.23-.44-1.08-.81-1.85-1.08-2.32l-.86-1.79c-3.43-7.14-6.79-11.82-10.06-14.01-3.28-2.19-9.67-2.85-19.21-1.96-23.65,2.2-34.99,10.65-33.75,25.31.45,5.3,2.37,11.98,5.77,20.02l1.05,3.7c.94,2.44,2.55,5.5,4.83,9.18,2.27,3.68,5.06,7.67,8.35,11.96,3.29,4.3,7.71,8.51,13.27,12.62,5.53,4.11,11.6,7.69,18.21,10.74,6.57,3.04,14.58,5.2,24,6.47,9.35,1.26,19.3,1.2,29.81-.17,27.28-3.57,48.88-14.77,65.04-33.52,15.97-18.53,22.89-40.33,20.89-65.6-.52-6.61-2.1-12.9-4.74-18.86Z"/>
    </g>
  </g>
</svg>