<?xml version="1.0" encoding="UTF-8"?>
<svg id="Layer_1" data-name="Layer 1" xmlns="http://www.w3.org/2000/svg" viewBox="0 0 350 350">
  <g fill="currentColor">
    <g>
      <path class="cls-1" d="m265.69,35.74c-40.17-3.51-75.59,26.2-79.11,66.38-3.51,40.17,26.2,75.59,66.38,79.11,40.17,3.51,75.59-26.2,79.11-66.38,3.51-40.17-26.2-75.59-66.38-79.11Zm-21.87,86.98c-.12,1.36-.25,2.37-.4,3.04-.15.67-.48,1.41-1,2.23-.52.82-1.35,1.35-2.5,1.61-1.15.26-2.67.3-4.56.14-2.65-.23-4.49-.79-5.51-1.68-1.02-.89-1.55-2.11-1.6-3.66-2.46,2.93-6.13,4.19-11.02,3.76-5.31-.46-9.94-3.22-13.89-8.25-3.96-5.04-5.66-10.68-5.11-16.93s3.19-11.23,7.99-15.47c4.8-4.24,9.82-6.14,15.07-5.68,2,.18,3.8.69,5.39,1.54,1.59.85,2.68,1.61,3.27,2.29.59.68,1.07,1.33,1.43,1.95.32-1.63,1.06-2.82,2.23-3.55,1.16-.73,3.13-.97,5.9-.73,1.83.16,3.29.47,4.38.92,1.09.45,1.82,1.14,2.18,2.06.37.92.56,1.73.59,2.41.03.69-.02,1.71-.13,3.06l-2.71,30.95Zm74.84,9.71c-.15.67-.48,1.43-1,2.27-.52.85-1.36,1.4-2.51,1.65-1.15.26-2.67.3-4.56.14-1.83-.16-3.29-.48-4.37-.96-1.09-.48-1.81-1.18-2.18-2.11-.36-.92-.56-1.73-.59-2.41-.03-.69.02-1.71.13-3.06l1.35-15.47c.45-5.13-1.15-7.85-4.81-8.17-2.06-.18-3.52.38-4.38,1.67-.86,1.29-1.39,3.18-1.61,5.65l-1.35,15.48c-.12,1.41-.26,2.44-.4,3.08-.15.64-.49,1.38-1.04,2.23-.55.84-1.4,1.39-2.55,1.65-1.15.26-2.67.3-4.56.14s-3.29-.48-4.37-.96c-1.09-.48-1.81-1.18-2.18-2.11-.36-.92-.56-1.73-.59-2.41-.03-.69.02-1.71.13-3.06l1.35-15.47c.45-5.13-1.15-7.85-4.81-8.17s-5.53,2.1-5.98,7.23l-1.37,15.65c-.12,1.36-.25,2.37-.4,3.04-.15.67-.5,1.41-1.04,2.23-.55.81-1.4,1.35-2.55,1.6-1.15.26-2.67.3-4.56.14s-3.29-.47-4.37-.92c-1.09-.45-1.82-1.14-2.18-2.06-.37-.92-.56-1.71-.6-2.37-.03-.66.01-1.69.14-3.11l2.72-31.13c.12-1.36.25-2.37.4-3.04.15-.67.49-1.41,1.04-2.23.55-.81,1.39-1.35,2.55-1.6,1.15-.25,2.67-.3,4.56-.14,2.89.25,4.79.95,5.7,2.1.91,1.15,1.28,2.73,1.1,4.73.13-.17.3-.37.5-.62.2-.25.66-.71,1.37-1.39.71-.68,1.45-1.27,2.2-1.77.76-.5,1.73-.92,2.92-1.26,1.19-.34,2.37-.46,3.55-.36,6.01.53,10.27,3.48,12.77,8.87.73-.83,1.59-1.69,2.59-2.58,1-.89,2.55-1.83,4.66-2.8,2.1-.97,4.22-1.37,6.34-1.18,4.72.41,8.51,2.57,11.37,6.48,2.87,3.9,3.93,10.04,3.2,18.41l-1.35,15.48c-.12,1.36-.25,2.37-.4,3.04Z"/>
      <path class="cls-1" d="m222.16,97.39c-2.3-.2-4.24.46-5.83,1.99-1.59,1.52-2.47,3.26-2.64,5.2s.44,3.77,1.84,5.46c1.4,1.7,3.21,2.64,5.45,2.84,2.12.19,3.97-.45,5.56-1.92,1.58-1.47,2.46-3.17,2.63-5.12s-.37-3.72-1.61-5.49c-1.24-1.77-3.04-2.76-5.4-2.97Z"/>
    </g>
    <path class="cls-1" d="m91.35,313.13c9.4,1.52,19.45,1.82,30.16.88,28.16-2.46,50.85-12.59,68.06-30.41,17.21-17.81,24.72-39.16,22.54-64.07-.57-6.51-2.29-12.69-5.14-18.55-2.86-5.85-5.9-10.51-9.14-13.98-3.24-3.46-6.92-6.66-11.04-9.59-4.13-2.92-6.93-4.79-8.4-5.6-1.48-.81-2.71-1.4-3.68-1.79l-.21-2.44,2.67-1.64c1.78-1.09,3.91-2.86,6.4-5.31,2.48-2.45,4.92-5.36,7.33-8.73.83-1.17,1.6-2.49,2.31-3.93-8.29-13.82-12.03-29.84-10.6-46.21.45-5.17,1.43-10.23,2.87-15.12-4.52-6.53-10.25-12.68-17.21-18.44-17.96-14.84-41.24-21.02-69.87-18.52-12.11,1.06-22.96,3.66-32.57,7.77-9.61,4.13-16.98,8.41-22.1,12.84-5.13,4.44-9.55,9.45-13.28,15.06-3.73,5.6-5.98,9.49-6.72,11.67-.75,2.17-1.31,3.87-1.67,5.07-3.27,8.26-4.69,14.72-4.29,19.37.77,8.85,7.27,16.14,19.51,21.87,7.35,3.58,13.93,5.11,19.75,4.6,10-.88,17.18-7.36,21.52-19.47l1.73-4.37c.92-2.9,3.7-5.95,8.35-9.18,4.64-3.22,10.69-5.15,18.14-5.81,9.08-.79,16.13.82,21.18,4.83,5.04,4.02,7.78,8.47,8.21,13.36.79,9.07-7.66,14.39-25.35,15.94-4.42.39-7.74.74-9.93,1.05-2.21.31-4.83,1.12-7.88,2.45-3.05,1.33-5.3,3.1-6.75,5.34-1.45,2.24-2.58,5.39-3.39,9.45-.82,4.06-.96,9.11-.43,15.17.65,7.45,1.87,13.33,3.65,17.62,1.78,4.3,4.44,7.18,7.97,8.63,3.52,1.45,6.71,2.29,9.54,2.51,2.83.22,6.92.1,12.28-.37,10.24-.9,18.42.79,24.54,5.06,6.12,4.27,9.45,9.44,9.98,15.49.57,6.52-1.84,12.53-7.22,18.04-5.38,5.52-14.24,8.81-26.58,9.89-5.36.47-10.31.14-14.86-.99-4.56-1.12-8.08-2.51-10.57-4.18-2.49-1.66-4.72-3.63-6.68-5.92-1.96-2.29-3.16-3.95-3.6-4.96-.44-1.02-.8-1.74-1.07-2.19l-.85-1.69c-3.4-6.74-6.72-11.14-9.95-13.2-3.23-2.06-9.5-2.69-18.81-1.87-22.81,2-33.63,9.75-32.45,23.24.43,4.89,2.26,11.06,5.49,18.52l1,3.43c.9,2.27,2.44,5.12,4.62,8.57,2.18,3.45,4.85,7.2,8.02,11.26,3.17,4.07,7.45,8.09,12.84,12.07,5.39,3.99,11.33,7.51,17.81,10.58,6.48,3.07,14.42,5.37,23.82,6.89Z"/>
  </g>
</svg>